<mxfile host="app.diagrams.net" modified="2021-04-18T13:15:14.971Z" agent="5.0 (Windows NT 10.0; WOW64) AppleWebKit/537.36 (KHTML, like Gecko) Chrome/80.0.3987.87 Safari/537.36 SE 2.X MetaSr 1.0" etag="eg-lq6uU9fbsWPpi9-mD" version="14.6.1" type="github">
  <diagram id="C5RBs43oDa-KdzZeNtuy" name="Page-1">
    <mxGraphModel dx="858" dy="537" grid="1" gridSize="10" guides="1" tooltips="1" connect="1" arrows="1" fold="1" page="1" pageScale="1" pageWidth="827" pageHeight="1169" math="0" shadow="0">
      <root>
        <mxCell id="WIyWlLk6GJQsqaUBKTNV-0" />
        <mxCell id="WIyWlLk6GJQsqaUBKTNV-1" parent="WIyWlLk6GJQsqaUBKTNV-0" />
        <mxCell id="WIyWlLk6GJQsqaUBKTNV-2" value="" style="rounded=0;html=1;jettySize=auto;orthogonalLoop=1;fontSize=11;endArrow=block;endFill=0;endSize=8;strokeWidth=1;shadow=0;labelBackgroundColor=none;edgeStyle=orthogonalEdgeStyle;" parent="WIyWlLk6GJQsqaUBKTNV-1" source="WIyWlLk6GJQsqaUBKTNV-3" target="WIyWlLk6GJQsqaUBKTNV-6" edge="1">
          <mxGeometry relative="1" as="geometry" />
        </mxCell>
        <mxCell id="WIyWlLk6GJQsqaUBKTNV-3" value="登陆/注册" style="rounded=1;whiteSpace=wrap;html=1;fontSize=12;glass=0;strokeWidth=1;shadow=0;" parent="WIyWlLk6GJQsqaUBKTNV-1" vertex="1">
          <mxGeometry x="157.5" y="90" width="125" height="40" as="geometry" />
        </mxCell>
        <mxCell id="WIyWlLk6GJQsqaUBKTNV-4" value="Yes" style="rounded=0;html=1;jettySize=auto;orthogonalLoop=1;fontSize=11;endArrow=block;endFill=0;endSize=8;strokeWidth=1;shadow=0;labelBackgroundColor=none;edgeStyle=orthogonalEdgeStyle;" parent="WIyWlLk6GJQsqaUBKTNV-1" source="WIyWlLk6GJQsqaUBKTNV-6" target="WIyWlLk6GJQsqaUBKTNV-10" edge="1">
          <mxGeometry y="20" relative="1" as="geometry">
            <mxPoint as="offset" />
          </mxGeometry>
        </mxCell>
        <mxCell id="WIyWlLk6GJQsqaUBKTNV-5" value="No" style="edgeStyle=orthogonalEdgeStyle;rounded=0;html=1;jettySize=auto;orthogonalLoop=1;fontSize=11;endArrow=block;endFill=0;endSize=8;strokeWidth=1;shadow=0;labelBackgroundColor=none;" parent="WIyWlLk6GJQsqaUBKTNV-1" source="WIyWlLk6GJQsqaUBKTNV-6" target="WIyWlLk6GJQsqaUBKTNV-7" edge="1">
          <mxGeometry y="10" relative="1" as="geometry">
            <mxPoint as="offset" />
          </mxGeometry>
        </mxCell>
        <mxCell id="WIyWlLk6GJQsqaUBKTNV-6" value="微信是否绑定员工账号" style="rhombus;whiteSpace=wrap;html=1;shadow=0;fontFamily=Helvetica;fontSize=12;align=center;strokeWidth=1;spacing=6;spacingTop=-4;" parent="WIyWlLk6GJQsqaUBKTNV-1" vertex="1">
          <mxGeometry x="145" y="180" width="150" height="80" as="geometry" />
        </mxCell>
        <mxCell id="WIyWlLk6GJQsqaUBKTNV-7" value="注册／绑定" style="rounded=1;whiteSpace=wrap;html=1;fontSize=12;glass=0;strokeWidth=1;shadow=0;" parent="WIyWlLk6GJQsqaUBKTNV-1" vertex="1">
          <mxGeometry x="354" y="200" width="120" height="40" as="geometry" />
        </mxCell>
        <mxCell id="WIyWlLk6GJQsqaUBKTNV-8" value="No" style="rounded=0;html=1;jettySize=auto;orthogonalLoop=1;fontSize=11;endArrow=block;endFill=0;endSize=8;strokeWidth=1;shadow=0;labelBackgroundColor=none;edgeStyle=orthogonalEdgeStyle;" parent="WIyWlLk6GJQsqaUBKTNV-1" source="WIyWlLk6GJQsqaUBKTNV-10" target="WIyWlLk6GJQsqaUBKTNV-11" edge="1">
          <mxGeometry x="0.3333" y="20" relative="1" as="geometry">
            <mxPoint as="offset" />
          </mxGeometry>
        </mxCell>
        <mxCell id="WIyWlLk6GJQsqaUBKTNV-9" value="Yes" style="edgeStyle=orthogonalEdgeStyle;rounded=0;html=1;jettySize=auto;orthogonalLoop=1;fontSize=11;endArrow=block;endFill=0;endSize=8;strokeWidth=1;shadow=0;labelBackgroundColor=none;" parent="WIyWlLk6GJQsqaUBKTNV-1" source="WIyWlLk6GJQsqaUBKTNV-10" target="WIyWlLk6GJQsqaUBKTNV-12" edge="1">
          <mxGeometry y="10" relative="1" as="geometry">
            <mxPoint as="offset" />
          </mxGeometry>
        </mxCell>
        <mxCell id="WIyWlLk6GJQsqaUBKTNV-10" value="Bulb&lt;br&gt;burned out?" style="rhombus;whiteSpace=wrap;html=1;shadow=0;fontFamily=Helvetica;fontSize=12;align=center;strokeWidth=1;spacing=6;spacingTop=-4;" parent="WIyWlLk6GJQsqaUBKTNV-1" vertex="1">
          <mxGeometry x="170" y="290" width="100" height="80" as="geometry" />
        </mxCell>
        <mxCell id="WIyWlLk6GJQsqaUBKTNV-11" value="Repair Lamp" style="rounded=1;whiteSpace=wrap;html=1;fontSize=12;glass=0;strokeWidth=1;shadow=0;" parent="WIyWlLk6GJQsqaUBKTNV-1" vertex="1">
          <mxGeometry x="160" y="440" width="120" height="40" as="geometry" />
        </mxCell>
        <mxCell id="WIyWlLk6GJQsqaUBKTNV-12" value="Replace Bulb" style="rounded=1;whiteSpace=wrap;html=1;fontSize=12;glass=0;strokeWidth=1;shadow=0;" parent="WIyWlLk6GJQsqaUBKTNV-1" vertex="1">
          <mxGeometry x="320" y="310" width="120" height="40" as="geometry" />
        </mxCell>
        <mxCell id="zfxt9xMSeyX1rN3_iHoX-0" value="Text" style="text;html=1;strokeColor=none;fillColor=none;align=center;verticalAlign=middle;whiteSpace=wrap;rounded=0;" parent="WIyWlLk6GJQsqaUBKTNV-1" vertex="1">
          <mxGeometry x="280" y="280" width="40" height="20" as="geometry" />
        </mxCell>
        <mxCell id="zfxt9xMSeyX1rN3_iHoX-2" value="流程图" style="text;html=1;align=center;verticalAlign=middle;resizable=0;points=[];autosize=1;" parent="WIyWlLk6GJQsqaUBKTNV-1" vertex="1">
          <mxGeometry x="195" y="30" width="50" height="20" as="geometry" />
        </mxCell>
        <mxCell id="thk-i_oiHUu1MFAnJIQH-11" style="edgeStyle=orthogonalEdgeStyle;rounded=0;orthogonalLoop=1;jettySize=auto;html=1;entryX=0;entryY=0.5;entryDx=0;entryDy=0;" parent="WIyWlLk6GJQsqaUBKTNV-1" source="thk-i_oiHUu1MFAnJIQH-0" target="thk-i_oiHUu1MFAnJIQH-6" edge="1">
          <mxGeometry relative="1" as="geometry" />
        </mxCell>
        <mxCell id="thk-i_oiHUu1MFAnJIQH-12" style="edgeStyle=orthogonalEdgeStyle;rounded=0;orthogonalLoop=1;jettySize=auto;html=1;entryX=0;entryY=0.5;entryDx=0;entryDy=0;" parent="WIyWlLk6GJQsqaUBKTNV-1" source="thk-i_oiHUu1MFAnJIQH-0" target="thk-i_oiHUu1MFAnJIQH-7" edge="1">
          <mxGeometry relative="1" as="geometry" />
        </mxCell>
        <mxCell id="thk-i_oiHUu1MFAnJIQH-13" style="edgeStyle=orthogonalEdgeStyle;rounded=0;orthogonalLoop=1;jettySize=auto;html=1;entryX=0;entryY=0.5;entryDx=0;entryDy=0;" parent="WIyWlLk6GJQsqaUBKTNV-1" source="thk-i_oiHUu1MFAnJIQH-0" target="thk-i_oiHUu1MFAnJIQH-8" edge="1">
          <mxGeometry relative="1" as="geometry" />
        </mxCell>
        <mxCell id="thk-i_oiHUu1MFAnJIQH-0" value="用户" style="shape=umlActor;verticalLabelPosition=bottom;verticalAlign=top;html=1;outlineConnect=0;" parent="WIyWlLk6GJQsqaUBKTNV-1" vertex="1">
          <mxGeometry x="140" y="720" width="30" height="60" as="geometry" />
        </mxCell>
        <mxCell id="thk-i_oiHUu1MFAnJIQH-16" style="edgeStyle=orthogonalEdgeStyle;rounded=0;orthogonalLoop=1;jettySize=auto;html=1;entryX=1;entryY=0.5;entryDx=0;entryDy=0;" parent="WIyWlLk6GJQsqaUBKTNV-1" source="thk-i_oiHUu1MFAnJIQH-5" target="thk-i_oiHUu1MFAnJIQH-10" edge="1">
          <mxGeometry relative="1" as="geometry" />
        </mxCell>
        <mxCell id="thk-i_oiHUu1MFAnJIQH-17" style="edgeStyle=orthogonalEdgeStyle;rounded=0;orthogonalLoop=1;jettySize=auto;html=1;entryX=1;entryY=0.5;entryDx=0;entryDy=0;" parent="WIyWlLk6GJQsqaUBKTNV-1" source="thk-i_oiHUu1MFAnJIQH-5" target="thk-i_oiHUu1MFAnJIQH-7" edge="1">
          <mxGeometry relative="1" as="geometry" />
        </mxCell>
        <mxCell id="thk-i_oiHUu1MFAnJIQH-19" style="edgeStyle=orthogonalEdgeStyle;rounded=0;orthogonalLoop=1;jettySize=auto;html=1;entryX=1;entryY=0.5;entryDx=0;entryDy=0;" parent="WIyWlLk6GJQsqaUBKTNV-1" source="thk-i_oiHUu1MFAnJIQH-5" target="thk-i_oiHUu1MFAnJIQH-6" edge="1">
          <mxGeometry relative="1" as="geometry" />
        </mxCell>
        <mxCell id="thk-i_oiHUu1MFAnJIQH-5" value="管理员" style="shape=umlActor;verticalLabelPosition=bottom;verticalAlign=top;html=1;outlineConnect=0;" parent="WIyWlLk6GJQsqaUBKTNV-1" vertex="1">
          <mxGeometry x="520" y="720" width="30" height="60" as="geometry" />
        </mxCell>
        <mxCell id="thk-i_oiHUu1MFAnJIQH-6" value="登陆" style="ellipse;whiteSpace=wrap;html=1;" parent="WIyWlLk6GJQsqaUBKTNV-1" vertex="1">
          <mxGeometry x="280" y="790" width="90" height="60" as="geometry" />
        </mxCell>
        <mxCell id="thk-i_oiHUu1MFAnJIQH-7" value="登出" style="ellipse;whiteSpace=wrap;html=1;" parent="WIyWlLk6GJQsqaUBKTNV-1" vertex="1">
          <mxGeometry x="280" y="650" width="90" height="60" as="geometry" />
        </mxCell>
        <mxCell id="thk-i_oiHUu1MFAnJIQH-8" value="注册账号" style="ellipse;whiteSpace=wrap;html=1;" parent="WIyWlLk6GJQsqaUBKTNV-1" vertex="1">
          <mxGeometry x="280" y="720" width="90" height="60" as="geometry" />
        </mxCell>
        <mxCell id="thk-i_oiHUu1MFAnJIQH-10" value="权限检测" style="ellipse;whiteSpace=wrap;html=1;" parent="WIyWlLk6GJQsqaUBKTNV-1" vertex="1">
          <mxGeometry x="280" y="580" width="90" height="60" as="geometry" />
        </mxCell>
        <mxCell id="6UupY6SGxDUpPimC8WvN-0" style="edgeStyle=orthogonalEdgeStyle;rounded=0;orthogonalLoop=1;jettySize=auto;html=1;entryX=0;entryY=0.5;entryDx=0;entryDy=0;" parent="WIyWlLk6GJQsqaUBKTNV-1" source="6UupY6SGxDUpPimC8WvN-3" target="6UupY6SGxDUpPimC8WvN-4" edge="1">
          <mxGeometry relative="1" as="geometry" />
        </mxCell>
        <mxCell id="6UupY6SGxDUpPimC8WvN-1" style="edgeStyle=orthogonalEdgeStyle;rounded=0;orthogonalLoop=1;jettySize=auto;html=1;entryX=0;entryY=0.5;entryDx=0;entryDy=0;" parent="WIyWlLk6GJQsqaUBKTNV-1" source="6UupY6SGxDUpPimC8WvN-3" target="6UupY6SGxDUpPimC8WvN-5" edge="1">
          <mxGeometry relative="1" as="geometry" />
        </mxCell>
        <mxCell id="6UupY6SGxDUpPimC8WvN-2" style="edgeStyle=orthogonalEdgeStyle;rounded=0;orthogonalLoop=1;jettySize=auto;html=1;entryX=0;entryY=0.5;entryDx=0;entryDy=0;" parent="WIyWlLk6GJQsqaUBKTNV-1" source="6UupY6SGxDUpPimC8WvN-3" target="6UupY6SGxDUpPimC8WvN-6" edge="1">
          <mxGeometry relative="1" as="geometry" />
        </mxCell>
        <mxCell id="6UupY6SGxDUpPimC8WvN-12" style="edgeStyle=orthogonalEdgeStyle;rounded=0;orthogonalLoop=1;jettySize=auto;html=1;entryX=0;entryY=0.5;entryDx=0;entryDy=0;" parent="WIyWlLk6GJQsqaUBKTNV-1" source="6UupY6SGxDUpPimC8WvN-3" target="6UupY6SGxDUpPimC8WvN-8" edge="1">
          <mxGeometry relative="1" as="geometry" />
        </mxCell>
        <mxCell id="6UupY6SGxDUpPimC8WvN-13" style="edgeStyle=orthogonalEdgeStyle;rounded=0;orthogonalLoop=1;jettySize=auto;html=1;entryX=0;entryY=0.5;entryDx=0;entryDy=0;" parent="WIyWlLk6GJQsqaUBKTNV-1" source="6UupY6SGxDUpPimC8WvN-3" target="6UupY6SGxDUpPimC8WvN-9" edge="1">
          <mxGeometry relative="1" as="geometry" />
        </mxCell>
        <mxCell id="6UupY6SGxDUpPimC8WvN-14" style="edgeStyle=orthogonalEdgeStyle;rounded=0;orthogonalLoop=1;jettySize=auto;html=1;entryX=0;entryY=0.5;entryDx=0;entryDy=0;" parent="WIyWlLk6GJQsqaUBKTNV-1" source="6UupY6SGxDUpPimC8WvN-3" target="6UupY6SGxDUpPimC8WvN-10" edge="1">
          <mxGeometry relative="1" as="geometry" />
        </mxCell>
        <mxCell id="6UupY6SGxDUpPimC8WvN-16" style="edgeStyle=orthogonalEdgeStyle;rounded=0;orthogonalLoop=1;jettySize=auto;html=1;entryX=0;entryY=0.5;entryDx=0;entryDy=0;" parent="WIyWlLk6GJQsqaUBKTNV-1" source="6UupY6SGxDUpPimC8WvN-3" target="6UupY6SGxDUpPimC8WvN-7" edge="1">
          <mxGeometry relative="1" as="geometry" />
        </mxCell>
        <mxCell id="6UupY6SGxDUpPimC8WvN-3" value="用户" style="shape=umlActor;verticalLabelPosition=bottom;verticalAlign=top;html=1;outlineConnect=0;" parent="WIyWlLk6GJQsqaUBKTNV-1" vertex="1">
          <mxGeometry x="145" y="1240" width="30" height="60" as="geometry" />
        </mxCell>
        <mxCell id="6UupY6SGxDUpPimC8WvN-4" value="点赞" style="ellipse;whiteSpace=wrap;html=1;" parent="WIyWlLk6GJQsqaUBKTNV-1" vertex="1">
          <mxGeometry x="280" y="1240" width="90" height="60" as="geometry" />
        </mxCell>
        <mxCell id="6UupY6SGxDUpPimC8WvN-5" value="购买资源" style="ellipse;whiteSpace=wrap;html=1;" parent="WIyWlLk6GJQsqaUBKTNV-1" vertex="1">
          <mxGeometry x="280" y="1100" width="90" height="60" as="geometry" />
        </mxCell>
        <mxCell id="6UupY6SGxDUpPimC8WvN-6" value="下载资源" style="ellipse;whiteSpace=wrap;html=1;" parent="WIyWlLk6GJQsqaUBKTNV-1" vertex="1">
          <mxGeometry x="280" y="1169" width="90" height="60" as="geometry" />
        </mxCell>
        <mxCell id="6UupY6SGxDUpPimC8WvN-7" value="浏览资源信息" style="ellipse;whiteSpace=wrap;html=1;" parent="WIyWlLk6GJQsqaUBKTNV-1" vertex="1">
          <mxGeometry x="280" y="1030" width="90" height="60" as="geometry" />
        </mxCell>
        <mxCell id="6UupY6SGxDUpPimC8WvN-8" value="收藏" style="ellipse;whiteSpace=wrap;html=1;" parent="WIyWlLk6GJQsqaUBKTNV-1" vertex="1">
          <mxGeometry x="280" y="1320" width="90" height="60" as="geometry" />
        </mxCell>
        <mxCell id="6UupY6SGxDUpPimC8WvN-9" value="关注作者" style="ellipse;whiteSpace=wrap;html=1;" parent="WIyWlLk6GJQsqaUBKTNV-1" vertex="1">
          <mxGeometry x="280" y="1400" width="90" height="60" as="geometry" />
        </mxCell>
        <mxCell id="6UupY6SGxDUpPimC8WvN-10" value="评论资源" style="ellipse;whiteSpace=wrap;html=1;" parent="WIyWlLk6GJQsqaUBKTNV-1" vertex="1">
          <mxGeometry x="280" y="1470" width="90" height="60" as="geometry" />
        </mxCell>
        <mxCell id="6UupY6SGxDUpPimC8WvN-17" style="edgeStyle=orthogonalEdgeStyle;rounded=0;orthogonalLoop=1;jettySize=auto;html=1;entryX=0;entryY=0.5;entryDx=0;entryDy=0;" parent="WIyWlLk6GJQsqaUBKTNV-1" source="6UupY6SGxDUpPimC8WvN-20" target="6UupY6SGxDUpPimC8WvN-21" edge="1">
          <mxGeometry relative="1" as="geometry" />
        </mxCell>
        <mxCell id="6UupY6SGxDUpPimC8WvN-18" style="edgeStyle=orthogonalEdgeStyle;rounded=0;orthogonalLoop=1;jettySize=auto;html=1;entryX=0;entryY=0.5;entryDx=0;entryDy=0;" parent="WIyWlLk6GJQsqaUBKTNV-1" source="6UupY6SGxDUpPimC8WvN-20" target="6UupY6SGxDUpPimC8WvN-22" edge="1">
          <mxGeometry relative="1" as="geometry" />
        </mxCell>
        <mxCell id="6UupY6SGxDUpPimC8WvN-19" style="edgeStyle=orthogonalEdgeStyle;rounded=0;orthogonalLoop=1;jettySize=auto;html=1;entryX=0;entryY=0.5;entryDx=0;entryDy=0;" parent="WIyWlLk6GJQsqaUBKTNV-1" source="6UupY6SGxDUpPimC8WvN-20" target="6UupY6SGxDUpPimC8WvN-23" edge="1">
          <mxGeometry relative="1" as="geometry" />
        </mxCell>
        <mxCell id="6UupY6SGxDUpPimC8WvN-20" value="用户" style="shape=umlActor;verticalLabelPosition=bottom;verticalAlign=top;html=1;outlineConnect=0;" parent="WIyWlLk6GJQsqaUBKTNV-1" vertex="1">
          <mxGeometry x="160" y="1719" width="30" height="60" as="geometry" />
        </mxCell>
        <mxCell id="6UupY6SGxDUpPimC8WvN-21" value="关注用户" style="ellipse;whiteSpace=wrap;html=1;" parent="WIyWlLk6GJQsqaUBKTNV-1" vertex="1">
          <mxGeometry x="295" y="1719" width="90" height="60" as="geometry" />
        </mxCell>
        <mxCell id="6UupY6SGxDUpPimC8WvN-22" value="查看关注信息" style="ellipse;whiteSpace=wrap;html=1;" parent="WIyWlLk6GJQsqaUBKTNV-1" vertex="1">
          <mxGeometry x="295" y="1648" width="90" height="60" as="geometry" />
        </mxCell>
        <mxCell id="6UupY6SGxDUpPimC8WvN-23" value="取消关注" style="ellipse;whiteSpace=wrap;html=1;" parent="WIyWlLk6GJQsqaUBKTNV-1" vertex="1">
          <mxGeometry x="295" y="1799" width="90" height="60" as="geometry" />
        </mxCell>
        <mxCell id="6UupY6SGxDUpPimC8WvN-24" style="edgeStyle=orthogonalEdgeStyle;rounded=0;orthogonalLoop=1;jettySize=auto;html=1;entryX=0;entryY=0.5;entryDx=0;entryDy=0;" parent="WIyWlLk6GJQsqaUBKTNV-1" source="6UupY6SGxDUpPimC8WvN-27" target="6UupY6SGxDUpPimC8WvN-28" edge="1">
          <mxGeometry relative="1" as="geometry" />
        </mxCell>
        <mxCell id="6UupY6SGxDUpPimC8WvN-25" style="edgeStyle=orthogonalEdgeStyle;rounded=0;orthogonalLoop=1;jettySize=auto;html=1;entryX=0;entryY=0.5;entryDx=0;entryDy=0;" parent="WIyWlLk6GJQsqaUBKTNV-1" source="6UupY6SGxDUpPimC8WvN-27" target="6UupY6SGxDUpPimC8WvN-29" edge="1">
          <mxGeometry relative="1" as="geometry" />
        </mxCell>
        <mxCell id="6UupY6SGxDUpPimC8WvN-26" style="edgeStyle=orthogonalEdgeStyle;rounded=0;orthogonalLoop=1;jettySize=auto;html=1;entryX=0;entryY=0.5;entryDx=0;entryDy=0;" parent="WIyWlLk6GJQsqaUBKTNV-1" source="6UupY6SGxDUpPimC8WvN-27" target="6UupY6SGxDUpPimC8WvN-30" edge="1">
          <mxGeometry relative="1" as="geometry" />
        </mxCell>
        <mxCell id="6UupY6SGxDUpPimC8WvN-27" value="用户" style="shape=umlActor;verticalLabelPosition=bottom;verticalAlign=top;html=1;outlineConnect=0;" parent="WIyWlLk6GJQsqaUBKTNV-1" vertex="1">
          <mxGeometry x="170" y="2051" width="30" height="60" as="geometry" />
        </mxCell>
        <mxCell id="6UupY6SGxDUpPimC8WvN-28" value="搜索文章" style="ellipse;whiteSpace=wrap;html=1;" parent="WIyWlLk6GJQsqaUBKTNV-1" vertex="1">
          <mxGeometry x="305" y="2051" width="90" height="60" as="geometry" />
        </mxCell>
        <mxCell id="6UupY6SGxDUpPimC8WvN-29" value="搜索用户" style="ellipse;whiteSpace=wrap;html=1;" parent="WIyWlLk6GJQsqaUBKTNV-1" vertex="1">
          <mxGeometry x="305" y="1980" width="90" height="60" as="geometry" />
        </mxCell>
        <mxCell id="6UupY6SGxDUpPimC8WvN-30" value="搜索资源" style="ellipse;whiteSpace=wrap;html=1;" parent="WIyWlLk6GJQsqaUBKTNV-1" vertex="1">
          <mxGeometry x="305" y="2131" width="90" height="60" as="geometry" />
        </mxCell>
        <mxCell id="6UupY6SGxDUpPimC8WvN-31" style="edgeStyle=orthogonalEdgeStyle;rounded=0;orthogonalLoop=1;jettySize=auto;html=1;entryX=0;entryY=0.5;entryDx=0;entryDy=0;" parent="WIyWlLk6GJQsqaUBKTNV-1" source="6UupY6SGxDUpPimC8WvN-34" target="6UupY6SGxDUpPimC8WvN-35" edge="1">
          <mxGeometry relative="1" as="geometry" />
        </mxCell>
        <mxCell id="6UupY6SGxDUpPimC8WvN-32" style="edgeStyle=orthogonalEdgeStyle;rounded=0;orthogonalLoop=1;jettySize=auto;html=1;entryX=0;entryY=0.5;entryDx=0;entryDy=0;" parent="WIyWlLk6GJQsqaUBKTNV-1" source="6UupY6SGxDUpPimC8WvN-34" target="6UupY6SGxDUpPimC8WvN-36" edge="1">
          <mxGeometry relative="1" as="geometry" />
        </mxCell>
        <mxCell id="6UupY6SGxDUpPimC8WvN-33" style="edgeStyle=orthogonalEdgeStyle;rounded=0;orthogonalLoop=1;jettySize=auto;html=1;entryX=0;entryY=0.5;entryDx=0;entryDy=0;" parent="WIyWlLk6GJQsqaUBKTNV-1" source="6UupY6SGxDUpPimC8WvN-34" target="6UupY6SGxDUpPimC8WvN-37" edge="1">
          <mxGeometry relative="1" as="geometry" />
        </mxCell>
        <mxCell id="6UupY6SGxDUpPimC8WvN-39" style="edgeStyle=orthogonalEdgeStyle;rounded=0;orthogonalLoop=1;jettySize=auto;html=1;entryX=0;entryY=0.5;entryDx=0;entryDy=0;" parent="WIyWlLk6GJQsqaUBKTNV-1" source="6UupY6SGxDUpPimC8WvN-34" target="6UupY6SGxDUpPimC8WvN-38" edge="1">
          <mxGeometry relative="1" as="geometry" />
        </mxCell>
        <mxCell id="6UupY6SGxDUpPimC8WvN-34" value="用户" style="shape=umlActor;verticalLabelPosition=bottom;verticalAlign=top;html=1;outlineConnect=0;" parent="WIyWlLk6GJQsqaUBKTNV-1" vertex="1">
          <mxGeometry x="175" y="2381" width="30" height="60" as="geometry" />
        </mxCell>
        <mxCell id="6UupY6SGxDUpPimC8WvN-35" value="查看点赞消息" style="ellipse;whiteSpace=wrap;html=1;" parent="WIyWlLk6GJQsqaUBKTNV-1" vertex="1">
          <mxGeometry x="310" y="2381" width="90" height="60" as="geometry" />
        </mxCell>
        <mxCell id="6UupY6SGxDUpPimC8WvN-36" value="查看关注消息" style="ellipse;whiteSpace=wrap;html=1;" parent="WIyWlLk6GJQsqaUBKTNV-1" vertex="1">
          <mxGeometry x="310" y="2310" width="90" height="60" as="geometry" />
        </mxCell>
        <mxCell id="6UupY6SGxDUpPimC8WvN-37" value="&lt;span style=&quot;color: rgb(0 , 0 , 0) ; font-family: &amp;#34;helvetica&amp;#34; ; font-size: 12px ; font-style: normal ; font-weight: 400 ; letter-spacing: normal ; text-align: center ; text-indent: 0px ; text-transform: none ; word-spacing: 0px ; background-color: rgb(248 , 249 , 250) ; display: inline ; float: none&quot;&gt;查看评论消息&lt;/span&gt;" style="ellipse;whiteSpace=wrap;html=1;" parent="WIyWlLk6GJQsqaUBKTNV-1" vertex="1">
          <mxGeometry x="310" y="2461" width="90" height="60" as="geometry" />
        </mxCell>
        <mxCell id="6UupY6SGxDUpPimC8WvN-38" value="进行私聊" style="ellipse;whiteSpace=wrap;html=1;" parent="WIyWlLk6GJQsqaUBKTNV-1" vertex="1">
          <mxGeometry x="310" y="2540" width="90" height="60" as="geometry" />
        </mxCell>
        <mxCell id="6UupY6SGxDUpPimC8WvN-40" style="edgeStyle=orthogonalEdgeStyle;rounded=0;orthogonalLoop=1;jettySize=auto;html=1;entryX=0;entryY=0.5;entryDx=0;entryDy=0;" parent="WIyWlLk6GJQsqaUBKTNV-1" source="6UupY6SGxDUpPimC8WvN-44" target="6UupY6SGxDUpPimC8WvN-45" edge="1">
          <mxGeometry relative="1" as="geometry" />
        </mxCell>
        <mxCell id="6UupY6SGxDUpPimC8WvN-41" style="edgeStyle=orthogonalEdgeStyle;rounded=0;orthogonalLoop=1;jettySize=auto;html=1;entryX=0;entryY=0.5;entryDx=0;entryDy=0;" parent="WIyWlLk6GJQsqaUBKTNV-1" source="6UupY6SGxDUpPimC8WvN-44" target="6UupY6SGxDUpPimC8WvN-46" edge="1">
          <mxGeometry relative="1" as="geometry" />
        </mxCell>
        <mxCell id="6UupY6SGxDUpPimC8WvN-42" style="edgeStyle=orthogonalEdgeStyle;rounded=0;orthogonalLoop=1;jettySize=auto;html=1;entryX=0;entryY=0.5;entryDx=0;entryDy=0;" parent="WIyWlLk6GJQsqaUBKTNV-1" source="6UupY6SGxDUpPimC8WvN-44" target="6UupY6SGxDUpPimC8WvN-47" edge="1">
          <mxGeometry relative="1" as="geometry" />
        </mxCell>
        <mxCell id="6UupY6SGxDUpPimC8WvN-44" value="用户" style="shape=umlActor;verticalLabelPosition=bottom;verticalAlign=top;html=1;outlineConnect=0;" parent="WIyWlLk6GJQsqaUBKTNV-1" vertex="1">
          <mxGeometry x="175" y="2711" width="30" height="60" as="geometry" />
        </mxCell>
        <mxCell id="6UupY6SGxDUpPimC8WvN-45" value="查看聊天信息" style="ellipse;whiteSpace=wrap;html=1;" parent="WIyWlLk6GJQsqaUBKTNV-1" vertex="1">
          <mxGeometry x="310" y="2711" width="90" height="60" as="geometry" />
        </mxCell>
        <mxCell id="6UupY6SGxDUpPimC8WvN-46" value="创建聊天" style="ellipse;whiteSpace=wrap;html=1;" parent="WIyWlLk6GJQsqaUBKTNV-1" vertex="1">
          <mxGeometry x="310" y="2640" width="90" height="60" as="geometry" />
        </mxCell>
        <mxCell id="6UupY6SGxDUpPimC8WvN-47" value="&lt;span style=&quot;color: rgb(0 , 0 , 0) ; font-family: &amp;#34;helvetica&amp;#34; ; font-size: 12px ; font-style: normal ; font-weight: 400 ; letter-spacing: normal ; text-align: center ; text-indent: 0px ; text-transform: none ; word-spacing: 0px ; background-color: rgb(248 , 249 , 250) ; display: inline ; float: none&quot;&gt;发送聊天信息&lt;/span&gt;" style="ellipse;whiteSpace=wrap;html=1;" parent="WIyWlLk6GJQsqaUBKTNV-1" vertex="1">
          <mxGeometry x="310" y="2791" width="90" height="60" as="geometry" />
        </mxCell>
        <mxCell id="6UupY6SGxDUpPimC8WvN-49" style="edgeStyle=orthogonalEdgeStyle;rounded=0;orthogonalLoop=1;jettySize=auto;html=1;entryX=0;entryY=0.5;entryDx=0;entryDy=0;" parent="WIyWlLk6GJQsqaUBKTNV-1" source="6UupY6SGxDUpPimC8WvN-52" target="6UupY6SGxDUpPimC8WvN-53" edge="1">
          <mxGeometry relative="1" as="geometry" />
        </mxCell>
        <mxCell id="6UupY6SGxDUpPimC8WvN-50" style="edgeStyle=orthogonalEdgeStyle;rounded=0;orthogonalLoop=1;jettySize=auto;html=1;entryX=0;entryY=0.5;entryDx=0;entryDy=0;" parent="WIyWlLk6GJQsqaUBKTNV-1" source="6UupY6SGxDUpPimC8WvN-52" target="6UupY6SGxDUpPimC8WvN-54" edge="1">
          <mxGeometry relative="1" as="geometry" />
        </mxCell>
        <mxCell id="6UupY6SGxDUpPimC8WvN-51" style="edgeStyle=orthogonalEdgeStyle;rounded=0;orthogonalLoop=1;jettySize=auto;html=1;entryX=0;entryY=0.5;entryDx=0;entryDy=0;" parent="WIyWlLk6GJQsqaUBKTNV-1" source="6UupY6SGxDUpPimC8WvN-52" target="6UupY6SGxDUpPimC8WvN-55" edge="1">
          <mxGeometry relative="1" as="geometry" />
        </mxCell>
        <mxCell id="6UupY6SGxDUpPimC8WvN-65" style="edgeStyle=orthogonalEdgeStyle;rounded=0;orthogonalLoop=1;jettySize=auto;html=1;entryX=0;entryY=0.5;entryDx=0;entryDy=0;" parent="WIyWlLk6GJQsqaUBKTNV-1" source="6UupY6SGxDUpPimC8WvN-52" target="6UupY6SGxDUpPimC8WvN-64" edge="1">
          <mxGeometry relative="1" as="geometry" />
        </mxCell>
        <mxCell id="6UupY6SGxDUpPimC8WvN-66" style="edgeStyle=orthogonalEdgeStyle;rounded=0;orthogonalLoop=1;jettySize=auto;html=1;entryX=0.011;entryY=0.617;entryDx=0;entryDy=0;entryPerimeter=0;" parent="WIyWlLk6GJQsqaUBKTNV-1" source="6UupY6SGxDUpPimC8WvN-52" target="6UupY6SGxDUpPimC8WvN-63" edge="1">
          <mxGeometry relative="1" as="geometry" />
        </mxCell>
        <mxCell id="6UupY6SGxDUpPimC8WvN-52" value="管理员" style="shape=umlActor;verticalLabelPosition=bottom;verticalAlign=top;html=1;outlineConnect=0;" parent="WIyWlLk6GJQsqaUBKTNV-1" vertex="1">
          <mxGeometry x="174" y="3061" width="30" height="60" as="geometry" />
        </mxCell>
        <mxCell id="s0_QOfzXOmme4zOiCUI5-16" style="edgeStyle=orthogonalEdgeStyle;rounded=0;orthogonalLoop=1;jettySize=auto;html=1;entryX=-0.022;entryY=0.633;entryDx=0;entryDy=0;entryPerimeter=0;" edge="1" parent="WIyWlLk6GJQsqaUBKTNV-1" source="6UupY6SGxDUpPimC8WvN-53" target="s0_QOfzXOmme4zOiCUI5-14">
          <mxGeometry relative="1" as="geometry" />
        </mxCell>
        <mxCell id="6UupY6SGxDUpPimC8WvN-53" value="文章管理" style="ellipse;whiteSpace=wrap;html=1;" parent="WIyWlLk6GJQsqaUBKTNV-1" vertex="1">
          <mxGeometry x="320" y="3061" width="90" height="60" as="geometry" />
        </mxCell>
        <mxCell id="s0_QOfzXOmme4zOiCUI5-15" style="edgeStyle=orthogonalEdgeStyle;rounded=0;orthogonalLoop=1;jettySize=auto;html=1;entryX=-0.011;entryY=0.65;entryDx=0;entryDy=0;entryPerimeter=0;" edge="1" parent="WIyWlLk6GJQsqaUBKTNV-1" source="6UupY6SGxDUpPimC8WvN-54" target="s0_QOfzXOmme4zOiCUI5-14">
          <mxGeometry relative="1" as="geometry" />
        </mxCell>
        <mxCell id="6UupY6SGxDUpPimC8WvN-54" value="用户管理" style="ellipse;whiteSpace=wrap;html=1;" parent="WIyWlLk6GJQsqaUBKTNV-1" vertex="1">
          <mxGeometry x="320" y="2990" width="90" height="60" as="geometry" />
        </mxCell>
        <mxCell id="6UupY6SGxDUpPimC8WvN-55" value="&lt;span style=&quot;color: rgb(0 , 0 , 0) ; font-family: &amp;#34;helvetica&amp;#34; ; font-size: 12px ; font-style: normal ; font-weight: 400 ; letter-spacing: normal ; text-align: center ; text-indent: 0px ; text-transform: none ; word-spacing: 0px ; background-color: rgb(248 , 249 , 250) ; display: inline ; float: none&quot;&gt;资源管理&lt;/span&gt;" style="ellipse;whiteSpace=wrap;html=1;" parent="WIyWlLk6GJQsqaUBKTNV-1" vertex="1">
          <mxGeometry x="320" y="3141" width="90" height="60" as="geometry" />
        </mxCell>
        <mxCell id="6UupY6SGxDUpPimC8WvN-63" value="&lt;span style=&quot;color: rgb(0 , 0 , 0) ; font-family: &amp;#34;helvetica&amp;#34; ; font-size: 12px ; font-style: normal ; font-weight: 400 ; letter-spacing: normal ; text-align: center ; text-indent: 0px ; text-transform: none ; word-spacing: 0px ; background-color: rgb(248 , 249 , 250) ; display: inline ; float: none&quot;&gt;管理员管理&lt;/span&gt;" style="ellipse;whiteSpace=wrap;html=1;" parent="WIyWlLk6GJQsqaUBKTNV-1" vertex="1">
          <mxGeometry x="320" y="3210" width="90" height="60" as="geometry" />
        </mxCell>
        <mxCell id="6UupY6SGxDUpPimC8WvN-64" value="&lt;span style=&quot;color: rgb(0 , 0 , 0) ; font-family: &amp;#34;helvetica&amp;#34; ; font-size: 12px ; font-style: normal ; font-weight: 400 ; letter-spacing: normal ; text-align: center ; text-indent: 0px ; text-transform: none ; word-spacing: 0px ; background-color: rgb(248 , 249 , 250) ; display: inline ; float: none&quot;&gt;管理员管理&lt;/span&gt;" style="ellipse;whiteSpace=wrap;html=1;" parent="WIyWlLk6GJQsqaUBKTNV-1" vertex="1">
          <mxGeometry x="320" y="2900" width="90" height="60" as="geometry" />
        </mxCell>
        <mxCell id="s0_QOfzXOmme4zOiCUI5-0" style="edgeStyle=orthogonalEdgeStyle;rounded=0;orthogonalLoop=1;jettySize=auto;html=1;entryX=0;entryY=0.5;entryDx=0;entryDy=0;" edge="1" parent="WIyWlLk6GJQsqaUBKTNV-1" source="s0_QOfzXOmme4zOiCUI5-5" target="s0_QOfzXOmme4zOiCUI5-6">
          <mxGeometry relative="1" as="geometry" />
        </mxCell>
        <mxCell id="s0_QOfzXOmme4zOiCUI5-1" style="edgeStyle=orthogonalEdgeStyle;rounded=0;orthogonalLoop=1;jettySize=auto;html=1;entryX=0;entryY=0.5;entryDx=0;entryDy=0;" edge="1" parent="WIyWlLk6GJQsqaUBKTNV-1" source="s0_QOfzXOmme4zOiCUI5-5" target="s0_QOfzXOmme4zOiCUI5-7">
          <mxGeometry relative="1" as="geometry" />
        </mxCell>
        <mxCell id="s0_QOfzXOmme4zOiCUI5-2" style="edgeStyle=orthogonalEdgeStyle;rounded=0;orthogonalLoop=1;jettySize=auto;html=1;entryX=0;entryY=0.5;entryDx=0;entryDy=0;" edge="1" parent="WIyWlLk6GJQsqaUBKTNV-1" source="s0_QOfzXOmme4zOiCUI5-5" target="s0_QOfzXOmme4zOiCUI5-8">
          <mxGeometry relative="1" as="geometry" />
        </mxCell>
        <mxCell id="s0_QOfzXOmme4zOiCUI5-5" value="用户" style="shape=umlActor;verticalLabelPosition=bottom;verticalAlign=top;html=1;outlineConnect=0;" vertex="1" parent="WIyWlLk6GJQsqaUBKTNV-1">
          <mxGeometry x="174" y="3571" width="30" height="60" as="geometry" />
        </mxCell>
        <mxCell id="s0_QOfzXOmme4zOiCUI5-6" value="查看建议/反馈" style="ellipse;whiteSpace=wrap;html=1;" vertex="1" parent="WIyWlLk6GJQsqaUBKTNV-1">
          <mxGeometry x="324" y="3571" width="90" height="60" as="geometry" />
        </mxCell>
        <mxCell id="s0_QOfzXOmme4zOiCUI5-7" value="投递建议/反馈" style="ellipse;whiteSpace=wrap;html=1;" vertex="1" parent="WIyWlLk6GJQsqaUBKTNV-1">
          <mxGeometry x="324" y="3500" width="90" height="60" as="geometry" />
        </mxCell>
        <mxCell id="s0_QOfzXOmme4zOiCUI5-8" value="查看回复" style="ellipse;whiteSpace=wrap;html=1;" vertex="1" parent="WIyWlLk6GJQsqaUBKTNV-1">
          <mxGeometry x="324" y="3651" width="90" height="60" as="geometry" />
        </mxCell>
        <mxCell id="s0_QOfzXOmme4zOiCUI5-14" value="评论管理" style="ellipse;whiteSpace=wrap;html=1;" vertex="1" parent="WIyWlLk6GJQsqaUBKTNV-1">
          <mxGeometry x="480" y="3020" width="90" height="60" as="geometry" />
        </mxCell>
        <mxCell id="s0_QOfzXOmme4zOiCUI5-32" style="rounded=0;orthogonalLoop=1;jettySize=auto;html=1;entryX=0.5;entryY=1;entryDx=0;entryDy=0;" edge="1" parent="WIyWlLk6GJQsqaUBKTNV-1" source="s0_QOfzXOmme4zOiCUI5-19" target="s0_QOfzXOmme4zOiCUI5-22">
          <mxGeometry relative="1" as="geometry" />
        </mxCell>
        <mxCell id="s0_QOfzXOmme4zOiCUI5-33" style="edgeStyle=none;rounded=0;orthogonalLoop=1;jettySize=auto;html=1;entryX=0.305;entryY=0.94;entryDx=0;entryDy=0;entryPerimeter=0;" edge="1" parent="WIyWlLk6GJQsqaUBKTNV-1" source="s0_QOfzXOmme4zOiCUI5-19" target="s0_QOfzXOmme4zOiCUI5-23">
          <mxGeometry relative="1" as="geometry" />
        </mxCell>
        <mxCell id="s0_QOfzXOmme4zOiCUI5-34" style="edgeStyle=none;rounded=0;orthogonalLoop=1;jettySize=auto;html=1;entryX=1;entryY=1;entryDx=0;entryDy=0;" edge="1" parent="WIyWlLk6GJQsqaUBKTNV-1" source="s0_QOfzXOmme4zOiCUI5-19" target="s0_QOfzXOmme4zOiCUI5-21">
          <mxGeometry relative="1" as="geometry" />
        </mxCell>
        <mxCell id="s0_QOfzXOmme4zOiCUI5-35" style="edgeStyle=none;rounded=0;orthogonalLoop=1;jettySize=auto;html=1;" edge="1" parent="WIyWlLk6GJQsqaUBKTNV-1" source="s0_QOfzXOmme4zOiCUI5-19">
          <mxGeometry relative="1" as="geometry">
            <mxPoint x="170" y="3850" as="targetPoint" />
          </mxGeometry>
        </mxCell>
        <mxCell id="s0_QOfzXOmme4zOiCUI5-36" style="edgeStyle=none;rounded=0;orthogonalLoop=1;jettySize=auto;html=1;" edge="1" parent="WIyWlLk6GJQsqaUBKTNV-1" source="s0_QOfzXOmme4zOiCUI5-19">
          <mxGeometry relative="1" as="geometry">
            <mxPoint x="160" y="3910" as="targetPoint" />
          </mxGeometry>
        </mxCell>
        <mxCell id="s0_QOfzXOmme4zOiCUI5-37" style="edgeStyle=none;rounded=0;orthogonalLoop=1;jettySize=auto;html=1;entryX=1;entryY=0;entryDx=0;entryDy=0;" edge="1" parent="WIyWlLk6GJQsqaUBKTNV-1" source="s0_QOfzXOmme4zOiCUI5-19" target="s0_QOfzXOmme4zOiCUI5-25">
          <mxGeometry relative="1" as="geometry" />
        </mxCell>
        <mxCell id="s0_QOfzXOmme4zOiCUI5-38" style="edgeStyle=none;rounded=0;orthogonalLoop=1;jettySize=auto;html=1;" edge="1" parent="WIyWlLk6GJQsqaUBKTNV-1" source="s0_QOfzXOmme4zOiCUI5-19" target="s0_QOfzXOmme4zOiCUI5-26">
          <mxGeometry relative="1" as="geometry" />
        </mxCell>
        <mxCell id="s0_QOfzXOmme4zOiCUI5-39" style="edgeStyle=none;rounded=0;orthogonalLoop=1;jettySize=auto;html=1;" edge="1" parent="WIyWlLk6GJQsqaUBKTNV-1" source="s0_QOfzXOmme4zOiCUI5-19" target="s0_QOfzXOmme4zOiCUI5-27">
          <mxGeometry relative="1" as="geometry" />
        </mxCell>
        <mxCell id="s0_QOfzXOmme4zOiCUI5-40" style="edgeStyle=none;rounded=0;orthogonalLoop=1;jettySize=auto;html=1;entryX=0.5;entryY=0;entryDx=0;entryDy=0;" edge="1" parent="WIyWlLk6GJQsqaUBKTNV-1" source="s0_QOfzXOmme4zOiCUI5-19" target="s0_QOfzXOmme4zOiCUI5-31">
          <mxGeometry relative="1" as="geometry" />
        </mxCell>
        <mxCell id="s0_QOfzXOmme4zOiCUI5-41" style="edgeStyle=none;rounded=0;orthogonalLoop=1;jettySize=auto;html=1;" edge="1" parent="WIyWlLk6GJQsqaUBKTNV-1" source="s0_QOfzXOmme4zOiCUI5-19" target="s0_QOfzXOmme4zOiCUI5-28">
          <mxGeometry relative="1" as="geometry" />
        </mxCell>
        <mxCell id="s0_QOfzXOmme4zOiCUI5-42" style="edgeStyle=none;rounded=0;orthogonalLoop=1;jettySize=auto;html=1;entryX=0;entryY=0.5;entryDx=0;entryDy=0;" edge="1" parent="WIyWlLk6GJQsqaUBKTNV-1" source="s0_QOfzXOmme4zOiCUI5-19" target="s0_QOfzXOmme4zOiCUI5-29">
          <mxGeometry relative="1" as="geometry" />
        </mxCell>
        <mxCell id="s0_QOfzXOmme4zOiCUI5-43" style="edgeStyle=none;rounded=0;orthogonalLoop=1;jettySize=auto;html=1;entryX=0.026;entryY=0.8;entryDx=0;entryDy=0;entryPerimeter=0;" edge="1" parent="WIyWlLk6GJQsqaUBKTNV-1" source="s0_QOfzXOmme4zOiCUI5-19" target="s0_QOfzXOmme4zOiCUI5-30">
          <mxGeometry relative="1" as="geometry" />
        </mxCell>
        <mxCell id="s0_QOfzXOmme4zOiCUI5-78" style="edgeStyle=none;rounded=0;orthogonalLoop=1;jettySize=auto;html=1;" edge="1" parent="WIyWlLk6GJQsqaUBKTNV-1" source="s0_QOfzXOmme4zOiCUI5-19" target="s0_QOfzXOmme4zOiCUI5-77">
          <mxGeometry relative="1" as="geometry" />
        </mxCell>
        <mxCell id="s0_QOfzXOmme4zOiCUI5-19" value="用户" style="rounded=0;whiteSpace=wrap;html=1;" vertex="1" parent="WIyWlLk6GJQsqaUBKTNV-1">
          <mxGeometry x="295" y="3910" width="65" height="30" as="geometry" />
        </mxCell>
        <mxCell id="s0_QOfzXOmme4zOiCUI5-20" value="昵称" style="ellipse;whiteSpace=wrap;html=1;" vertex="1" parent="WIyWlLk6GJQsqaUBKTNV-1">
          <mxGeometry x="80" y="3820" width="95" height="50" as="geometry" />
        </mxCell>
        <mxCell id="s0_QOfzXOmme4zOiCUI5-21" value="个人描述" style="ellipse;whiteSpace=wrap;html=1;" vertex="1" parent="WIyWlLk6GJQsqaUBKTNV-1">
          <mxGeometry x="157.5" y="3780" width="95" height="50" as="geometry" />
        </mxCell>
        <mxCell id="s0_QOfzXOmme4zOiCUI5-22" value="性别&lt;span style=&quot;color: rgba(0 , 0 , 0 , 0) ; font-family: monospace ; font-size: 0px&quot;&gt;%3CmxGraphModel%3E%3Croot%3E%3CmxCell%20id%3D%220%22%2F%3E%3CmxCell%20id%3D%221%22%20parent%3D%220%22%2F%3E%3CmxCell%20id%3D%222%22%20value%3D%22%E6%98%B5%E7%A7%B0%22%20style%3D%22ellipse%3BwhiteSpace%3Dwrap%3Bhtml%3D1%3B%22%20vertex%3D%221%22%20parent%3D%221%22%3E%3CmxGeometry%20x%3D%2275%22%20y%3D%223820%22%20width%3D%2295%22%20height%3D%2250%22%20as%3D%22geometry%22%2F%3E%3C%2FmxCell%3E%3C%2Froot%3E%3C%2FmxGraphModel%3E&lt;/span&gt;" style="ellipse;whiteSpace=wrap;html=1;" vertex="1" parent="WIyWlLk6GJQsqaUBKTNV-1">
          <mxGeometry x="259" y="3770" width="95" height="50" as="geometry" />
        </mxCell>
        <mxCell id="s0_QOfzXOmme4zOiCUI5-23" value="邮箱" style="ellipse;whiteSpace=wrap;html=1;" vertex="1" parent="WIyWlLk6GJQsqaUBKTNV-1">
          <mxGeometry x="385" y="3790" width="95" height="50" as="geometry" />
        </mxCell>
        <mxCell id="s0_QOfzXOmme4zOiCUI5-24" value="头像地址" style="ellipse;whiteSpace=wrap;html=1;" vertex="1" parent="WIyWlLk6GJQsqaUBKTNV-1">
          <mxGeometry x="62.5" y="3880" width="95" height="50" as="geometry" />
        </mxCell>
        <mxCell id="s0_QOfzXOmme4zOiCUI5-25" value="密码" style="ellipse;whiteSpace=wrap;html=1;" vertex="1" parent="WIyWlLk6GJQsqaUBKTNV-1">
          <mxGeometry x="125" y="4000" width="95" height="50" as="geometry" />
        </mxCell>
        <mxCell id="s0_QOfzXOmme4zOiCUI5-26" value="账号创建时间" style="ellipse;whiteSpace=wrap;html=1;" vertex="1" parent="WIyWlLk6GJQsqaUBKTNV-1">
          <mxGeometry x="220" y="4020" width="95" height="50" as="geometry" />
        </mxCell>
        <mxCell id="s0_QOfzXOmme4zOiCUI5-27" value="文章数量" style="ellipse;whiteSpace=wrap;html=1;" vertex="1" parent="WIyWlLk6GJQsqaUBKTNV-1">
          <mxGeometry x="324" y="4020" width="95" height="50" as="geometry" />
        </mxCell>
        <mxCell id="s0_QOfzXOmme4zOiCUI5-28" value="关注数量" style="ellipse;whiteSpace=wrap;html=1;" vertex="1" parent="WIyWlLk6GJQsqaUBKTNV-1">
          <mxGeometry x="520" y="3960" width="95" height="50" as="geometry" />
        </mxCell>
        <mxCell id="s0_QOfzXOmme4zOiCUI5-29" value="收藏数量&lt;span style=&quot;color: rgba(0 , 0 , 0 , 0) ; font-family: monospace ; font-size: 0px&quot;&gt;%3CmxGraphModel%3E%3Croot%3E%3CmxCell%20id%3D%220%22%2F%3E%3CmxCell%20id%3D%221%22%20parent%3D%220%22%2F%3E%3CmxCell%20id%3D%222%22%20value%3D%22%E6%96%87%E7%AB%A0%E6%95%B0%E9%87%8F%22%20style%3D%22ellipse%3BwhiteSpace%3Dwrap%3Bhtml%3D1%3B%22%20vertex%3D%221%22%20parent%3D%221%22%3E%3CmxGeometry%20x%3D%22474%22%20y%3D%223970%22%20width%3D%2295%22%20height%3D%2250%22%20as%3D%22geometry%22%2F%3E%3C%2FmxCell%3E%3C%2Froot%3E%3C%2FmxGraphModel%3E&lt;/span&gt;" style="ellipse;whiteSpace=wrap;html=1;" vertex="1" parent="WIyWlLk6GJQsqaUBKTNV-1">
          <mxGeometry x="540" y="3900" width="95" height="50" as="geometry" />
        </mxCell>
        <mxCell id="s0_QOfzXOmme4zOiCUI5-30" value="积分" style="ellipse;whiteSpace=wrap;html=1;" vertex="1" parent="WIyWlLk6GJQsqaUBKTNV-1">
          <mxGeometry x="487.5" y="3840" width="95" height="50" as="geometry" />
        </mxCell>
        <mxCell id="s0_QOfzXOmme4zOiCUI5-31" value="资源文件数量" style="ellipse;whiteSpace=wrap;html=1;" vertex="1" parent="WIyWlLk6GJQsqaUBKTNV-1">
          <mxGeometry x="430" y="4000" width="95" height="50" as="geometry" />
        </mxCell>
        <mxCell id="s0_QOfzXOmme4zOiCUI5-79" style="edgeStyle=none;rounded=0;orthogonalLoop=1;jettySize=auto;html=1;" edge="1" parent="WIyWlLk6GJQsqaUBKTNV-1" source="s0_QOfzXOmme4zOiCUI5-71" target="s0_QOfzXOmme4zOiCUI5-72">
          <mxGeometry relative="1" as="geometry" />
        </mxCell>
        <mxCell id="s0_QOfzXOmme4zOiCUI5-80" style="edgeStyle=none;rounded=0;orthogonalLoop=1;jettySize=auto;html=1;" edge="1" parent="WIyWlLk6GJQsqaUBKTNV-1" source="s0_QOfzXOmme4zOiCUI5-71" target="s0_QOfzXOmme4zOiCUI5-76">
          <mxGeometry relative="1" as="geometry" />
        </mxCell>
        <mxCell id="s0_QOfzXOmme4zOiCUI5-81" style="edgeStyle=none;rounded=0;orthogonalLoop=1;jettySize=auto;html=1;" edge="1" parent="WIyWlLk6GJQsqaUBKTNV-1" source="s0_QOfzXOmme4zOiCUI5-71" target="s0_QOfzXOmme4zOiCUI5-75">
          <mxGeometry relative="1" as="geometry" />
        </mxCell>
        <mxCell id="s0_QOfzXOmme4zOiCUI5-82" style="edgeStyle=none;rounded=0;orthogonalLoop=1;jettySize=auto;html=1;" edge="1" parent="WIyWlLk6GJQsqaUBKTNV-1" source="s0_QOfzXOmme4zOiCUI5-71" target="s0_QOfzXOmme4zOiCUI5-74">
          <mxGeometry relative="1" as="geometry" />
        </mxCell>
        <mxCell id="s0_QOfzXOmme4zOiCUI5-83" value="" style="edgeStyle=none;rounded=0;orthogonalLoop=1;jettySize=auto;html=1;" edge="1" parent="WIyWlLk6GJQsqaUBKTNV-1" source="s0_QOfzXOmme4zOiCUI5-71" target="s0_QOfzXOmme4zOiCUI5-73">
          <mxGeometry relative="1" as="geometry" />
        </mxCell>
        <mxCell id="s0_QOfzXOmme4zOiCUI5-71" value="管理员" style="rounded=0;whiteSpace=wrap;html=1;" vertex="1" parent="WIyWlLk6GJQsqaUBKTNV-1">
          <mxGeometry x="288" y="4380" width="120" height="60" as="geometry" />
        </mxCell>
        <mxCell id="s0_QOfzXOmme4zOiCUI5-72" value="账号名称" style="ellipse;whiteSpace=wrap;html=1;" vertex="1" parent="WIyWlLk6GJQsqaUBKTNV-1">
          <mxGeometry x="112.5" y="4350" width="95" height="50" as="geometry" />
        </mxCell>
        <mxCell id="s0_QOfzXOmme4zOiCUI5-73" value="账号密码" style="ellipse;whiteSpace=wrap;html=1;" vertex="1" parent="WIyWlLk6GJQsqaUBKTNV-1">
          <mxGeometry x="300" y="4270" width="95" height="50" as="geometry" />
        </mxCell>
        <mxCell id="s0_QOfzXOmme4zOiCUI5-74" value="账号等级" style="ellipse;whiteSpace=wrap;html=1;" vertex="1" parent="WIyWlLk6GJQsqaUBKTNV-1">
          <mxGeometry x="487.5" y="4340" width="95" height="50" as="geometry" />
        </mxCell>
        <mxCell id="s0_QOfzXOmme4zOiCUI5-75" value="账号头像地址" style="ellipse;whiteSpace=wrap;html=1;" vertex="1" parent="WIyWlLk6GJQsqaUBKTNV-1">
          <mxGeometry x="430" y="4480" width="95" height="50" as="geometry" />
        </mxCell>
        <mxCell id="s0_QOfzXOmme4zOiCUI5-76" value="账号id" style="ellipse;whiteSpace=wrap;html=1;" vertex="1" parent="WIyWlLk6GJQsqaUBKTNV-1">
          <mxGeometry x="175" y="4470" width="95" height="50" as="geometry" />
        </mxCell>
        <mxCell id="s0_QOfzXOmme4zOiCUI5-77" value="账号id" style="ellipse;whiteSpace=wrap;html=1;" vertex="1" parent="WIyWlLk6GJQsqaUBKTNV-1">
          <mxGeometry x="80" y="3940" width="95" height="50" as="geometry" />
        </mxCell>
        <mxCell id="s0_QOfzXOmme4zOiCUI5-85" style="edgeStyle=none;rounded=0;orthogonalLoop=1;jettySize=auto;html=1;entryX=0.305;entryY=0.94;entryDx=0;entryDy=0;entryPerimeter=0;" edge="1" parent="WIyWlLk6GJQsqaUBKTNV-1" source="s0_QOfzXOmme4zOiCUI5-97" target="s0_QOfzXOmme4zOiCUI5-101">
          <mxGeometry relative="1" as="geometry" />
        </mxCell>
        <mxCell id="s0_QOfzXOmme4zOiCUI5-89" style="edgeStyle=none;rounded=0;orthogonalLoop=1;jettySize=auto;html=1;entryX=1;entryY=0;entryDx=0;entryDy=0;" edge="1" parent="WIyWlLk6GJQsqaUBKTNV-1" source="s0_QOfzXOmme4zOiCUI5-97" target="s0_QOfzXOmme4zOiCUI5-103">
          <mxGeometry relative="1" as="geometry" />
        </mxCell>
        <mxCell id="s0_QOfzXOmme4zOiCUI5-90" style="edgeStyle=none;rounded=0;orthogonalLoop=1;jettySize=auto;html=1;" edge="1" parent="WIyWlLk6GJQsqaUBKTNV-1" source="s0_QOfzXOmme4zOiCUI5-97" target="s0_QOfzXOmme4zOiCUI5-104">
          <mxGeometry relative="1" as="geometry" />
        </mxCell>
        <mxCell id="s0_QOfzXOmme4zOiCUI5-91" style="edgeStyle=none;rounded=0;orthogonalLoop=1;jettySize=auto;html=1;" edge="1" parent="WIyWlLk6GJQsqaUBKTNV-1" source="s0_QOfzXOmme4zOiCUI5-97" target="s0_QOfzXOmme4zOiCUI5-105">
          <mxGeometry relative="1" as="geometry" />
        </mxCell>
        <mxCell id="s0_QOfzXOmme4zOiCUI5-92" style="edgeStyle=none;rounded=0;orthogonalLoop=1;jettySize=auto;html=1;entryX=0;entryY=0;entryDx=0;entryDy=0;" edge="1" parent="WIyWlLk6GJQsqaUBKTNV-1" source="s0_QOfzXOmme4zOiCUI5-97" target="s0_QOfzXOmme4zOiCUI5-109">
          <mxGeometry relative="1" as="geometry" />
        </mxCell>
        <mxCell id="s0_QOfzXOmme4zOiCUI5-93" style="edgeStyle=none;rounded=0;orthogonalLoop=1;jettySize=auto;html=1;" edge="1" parent="WIyWlLk6GJQsqaUBKTNV-1" source="s0_QOfzXOmme4zOiCUI5-97" target="s0_QOfzXOmme4zOiCUI5-106">
          <mxGeometry relative="1" as="geometry" />
        </mxCell>
        <mxCell id="s0_QOfzXOmme4zOiCUI5-94" style="edgeStyle=none;rounded=0;orthogonalLoop=1;jettySize=auto;html=1;entryX=0;entryY=0.5;entryDx=0;entryDy=0;" edge="1" parent="WIyWlLk6GJQsqaUBKTNV-1" source="s0_QOfzXOmme4zOiCUI5-97" target="s0_QOfzXOmme4zOiCUI5-107">
          <mxGeometry relative="1" as="geometry" />
        </mxCell>
        <mxCell id="s0_QOfzXOmme4zOiCUI5-95" style="edgeStyle=none;rounded=0;orthogonalLoop=1;jettySize=auto;html=1;entryX=0.4;entryY=1.02;entryDx=0;entryDy=0;entryPerimeter=0;" edge="1" parent="WIyWlLk6GJQsqaUBKTNV-1" source="s0_QOfzXOmme4zOiCUI5-97" target="s0_QOfzXOmme4zOiCUI5-108">
          <mxGeometry relative="1" as="geometry" />
        </mxCell>
        <mxCell id="s0_QOfzXOmme4zOiCUI5-96" style="edgeStyle=none;rounded=0;orthogonalLoop=1;jettySize=auto;html=1;" edge="1" parent="WIyWlLk6GJQsqaUBKTNV-1" source="s0_QOfzXOmme4zOiCUI5-97" target="s0_QOfzXOmme4zOiCUI5-110">
          <mxGeometry relative="1" as="geometry" />
        </mxCell>
        <mxCell id="s0_QOfzXOmme4zOiCUI5-97" value="文章" style="rounded=0;whiteSpace=wrap;html=1;" vertex="1" parent="WIyWlLk6GJQsqaUBKTNV-1">
          <mxGeometry x="317.75" y="4840" width="65" height="30" as="geometry" />
        </mxCell>
        <mxCell id="s0_QOfzXOmme4zOiCUI5-101" value="文章浏览数量" style="ellipse;whiteSpace=wrap;html=1;" vertex="1" parent="WIyWlLk6GJQsqaUBKTNV-1">
          <mxGeometry x="175" y="4720" width="95" height="50" as="geometry" />
        </mxCell>
        <mxCell id="s0_QOfzXOmme4zOiCUI5-103" value="作者id" style="ellipse;whiteSpace=wrap;html=1;" vertex="1" parent="WIyWlLk6GJQsqaUBKTNV-1">
          <mxGeometry x="120" y="4900" width="95" height="50" as="geometry" />
        </mxCell>
        <mxCell id="s0_QOfzXOmme4zOiCUI5-104" value="文章更新时间" style="ellipse;whiteSpace=wrap;html=1;" vertex="1" parent="WIyWlLk6GJQsqaUBKTNV-1">
          <mxGeometry x="210" y="4940" width="95" height="50" as="geometry" />
        </mxCell>
        <mxCell id="s0_QOfzXOmme4zOiCUI5-105" value="点赞数量" style="ellipse;whiteSpace=wrap;html=1;" vertex="1" parent="WIyWlLk6GJQsqaUBKTNV-1">
          <mxGeometry x="324" y="4950" width="95" height="50" as="geometry" />
        </mxCell>
        <mxCell id="s0_QOfzXOmme4zOiCUI5-106" value="文章内容" style="ellipse;whiteSpace=wrap;html=1;" vertex="1" parent="WIyWlLk6GJQsqaUBKTNV-1">
          <mxGeometry x="510" y="4830" width="95" height="50" as="geometry" />
        </mxCell>
        <mxCell id="s0_QOfzXOmme4zOiCUI5-107" value="文章状态" style="ellipse;whiteSpace=wrap;html=1;" vertex="1" parent="WIyWlLk6GJQsqaUBKTNV-1">
          <mxGeometry x="447.75" y="4740" width="95" height="50" as="geometry" />
        </mxCell>
        <mxCell id="s0_QOfzXOmme4zOiCUI5-108" value="文章收藏数量" style="ellipse;whiteSpace=wrap;html=1;" vertex="1" parent="WIyWlLk6GJQsqaUBKTNV-1">
          <mxGeometry x="292.5" y="4710" width="95" height="50" as="geometry" />
        </mxCell>
        <mxCell id="s0_QOfzXOmme4zOiCUI5-109" value="文章标题" style="ellipse;whiteSpace=wrap;html=1;" vertex="1" parent="WIyWlLk6GJQsqaUBKTNV-1">
          <mxGeometry x="474" y="4930" width="95" height="50" as="geometry" />
        </mxCell>
        <mxCell id="s0_QOfzXOmme4zOiCUI5-110" value="文章id" style="ellipse;whiteSpace=wrap;html=1;" vertex="1" parent="WIyWlLk6GJQsqaUBKTNV-1">
          <mxGeometry x="95" y="4810" width="95" height="50" as="geometry" />
        </mxCell>
        <mxCell id="s0_QOfzXOmme4zOiCUI5-111" style="edgeStyle=none;rounded=0;orthogonalLoop=1;jettySize=auto;html=1;entryX=0.305;entryY=0.94;entryDx=0;entryDy=0;entryPerimeter=0;" edge="1" parent="WIyWlLk6GJQsqaUBKTNV-1" source="s0_QOfzXOmme4zOiCUI5-120" target="s0_QOfzXOmme4zOiCUI5-121">
          <mxGeometry relative="1" as="geometry" />
        </mxCell>
        <mxCell id="s0_QOfzXOmme4zOiCUI5-112" style="edgeStyle=none;rounded=0;orthogonalLoop=1;jettySize=auto;html=1;entryX=1;entryY=0;entryDx=0;entryDy=0;" edge="1" parent="WIyWlLk6GJQsqaUBKTNV-1" source="s0_QOfzXOmme4zOiCUI5-120" target="s0_QOfzXOmme4zOiCUI5-122">
          <mxGeometry relative="1" as="geometry" />
        </mxCell>
        <mxCell id="s0_QOfzXOmme4zOiCUI5-113" style="edgeStyle=none;rounded=0;orthogonalLoop=1;jettySize=auto;html=1;" edge="1" parent="WIyWlLk6GJQsqaUBKTNV-1" source="s0_QOfzXOmme4zOiCUI5-120" target="s0_QOfzXOmme4zOiCUI5-123">
          <mxGeometry relative="1" as="geometry" />
        </mxCell>
        <mxCell id="s0_QOfzXOmme4zOiCUI5-114" style="edgeStyle=none;rounded=0;orthogonalLoop=1;jettySize=auto;html=1;" edge="1" parent="WIyWlLk6GJQsqaUBKTNV-1" source="s0_QOfzXOmme4zOiCUI5-120" target="s0_QOfzXOmme4zOiCUI5-124">
          <mxGeometry relative="1" as="geometry" />
        </mxCell>
        <mxCell id="s0_QOfzXOmme4zOiCUI5-115" style="edgeStyle=none;rounded=0;orthogonalLoop=1;jettySize=auto;html=1;entryX=0;entryY=0;entryDx=0;entryDy=0;" edge="1" parent="WIyWlLk6GJQsqaUBKTNV-1" source="s0_QOfzXOmme4zOiCUI5-120" target="s0_QOfzXOmme4zOiCUI5-128">
          <mxGeometry relative="1" as="geometry" />
        </mxCell>
        <mxCell id="s0_QOfzXOmme4zOiCUI5-116" style="edgeStyle=none;rounded=0;orthogonalLoop=1;jettySize=auto;html=1;" edge="1" parent="WIyWlLk6GJQsqaUBKTNV-1" source="s0_QOfzXOmme4zOiCUI5-120" target="s0_QOfzXOmme4zOiCUI5-125">
          <mxGeometry relative="1" as="geometry" />
        </mxCell>
        <mxCell id="s0_QOfzXOmme4zOiCUI5-118" style="edgeStyle=none;rounded=0;orthogonalLoop=1;jettySize=auto;html=1;entryX=0.4;entryY=1.02;entryDx=0;entryDy=0;entryPerimeter=0;" edge="1" parent="WIyWlLk6GJQsqaUBKTNV-1" source="s0_QOfzXOmme4zOiCUI5-120" target="s0_QOfzXOmme4zOiCUI5-127">
          <mxGeometry relative="1" as="geometry" />
        </mxCell>
        <mxCell id="s0_QOfzXOmme4zOiCUI5-119" style="edgeStyle=none;rounded=0;orthogonalLoop=1;jettySize=auto;html=1;" edge="1" parent="WIyWlLk6GJQsqaUBKTNV-1" source="s0_QOfzXOmme4zOiCUI5-120" target="s0_QOfzXOmme4zOiCUI5-129">
          <mxGeometry relative="1" as="geometry" />
        </mxCell>
        <mxCell id="s0_QOfzXOmme4zOiCUI5-132" style="edgeStyle=none;rounded=0;orthogonalLoop=1;jettySize=auto;html=1;" edge="1" parent="WIyWlLk6GJQsqaUBKTNV-1" source="s0_QOfzXOmme4zOiCUI5-120" target="s0_QOfzXOmme4zOiCUI5-130">
          <mxGeometry relative="1" as="geometry" />
        </mxCell>
        <mxCell id="s0_QOfzXOmme4zOiCUI5-133" style="edgeStyle=none;rounded=0;orthogonalLoop=1;jettySize=auto;html=1;entryX=0;entryY=1;entryDx=0;entryDy=0;" edge="1" parent="WIyWlLk6GJQsqaUBKTNV-1" source="s0_QOfzXOmme4zOiCUI5-120" target="s0_QOfzXOmme4zOiCUI5-131">
          <mxGeometry relative="1" as="geometry" />
        </mxCell>
        <mxCell id="s0_QOfzXOmme4zOiCUI5-120" value="资源文件" style="rounded=0;whiteSpace=wrap;html=1;" vertex="1" parent="WIyWlLk6GJQsqaUBKTNV-1">
          <mxGeometry x="339.25" y="5246" width="65" height="30" as="geometry" />
        </mxCell>
        <mxCell id="s0_QOfzXOmme4zOiCUI5-121" value="浏览数量" style="ellipse;whiteSpace=wrap;html=1;" vertex="1" parent="WIyWlLk6GJQsqaUBKTNV-1">
          <mxGeometry x="196.5" y="5126" width="95" height="50" as="geometry" />
        </mxCell>
        <mxCell id="s0_QOfzXOmme4zOiCUI5-122" value="作者id" style="ellipse;whiteSpace=wrap;html=1;" vertex="1" parent="WIyWlLk6GJQsqaUBKTNV-1">
          <mxGeometry x="141.5" y="5306" width="95" height="54" as="geometry" />
        </mxCell>
        <mxCell id="s0_QOfzXOmme4zOiCUI5-123" value="资源上传时间" style="ellipse;whiteSpace=wrap;html=1;" vertex="1" parent="WIyWlLk6GJQsqaUBKTNV-1">
          <mxGeometry x="231.5" y="5346" width="95" height="50" as="geometry" />
        </mxCell>
        <mxCell id="s0_QOfzXOmme4zOiCUI5-124" value="点赞数量" style="ellipse;whiteSpace=wrap;html=1;" vertex="1" parent="WIyWlLk6GJQsqaUBKTNV-1">
          <mxGeometry x="345.5" y="5356" width="95" height="50" as="geometry" />
        </mxCell>
        <mxCell id="s0_QOfzXOmme4zOiCUI5-125" value="资源描述" style="ellipse;whiteSpace=wrap;html=1;" vertex="1" parent="WIyWlLk6GJQsqaUBKTNV-1">
          <mxGeometry x="531.5" y="5236" width="95" height="50" as="geometry" />
        </mxCell>
        <mxCell id="s0_QOfzXOmme4zOiCUI5-127" value="收藏数量" style="ellipse;whiteSpace=wrap;html=1;" vertex="1" parent="WIyWlLk6GJQsqaUBKTNV-1">
          <mxGeometry x="314" y="5116" width="95" height="50" as="geometry" />
        </mxCell>
        <mxCell id="s0_QOfzXOmme4zOiCUI5-128" value="资源标题" style="ellipse;whiteSpace=wrap;html=1;" vertex="1" parent="WIyWlLk6GJQsqaUBKTNV-1">
          <mxGeometry x="495.5" y="5336" width="95" height="50" as="geometry" />
        </mxCell>
        <mxCell id="s0_QOfzXOmme4zOiCUI5-129" value="资源id" style="ellipse;whiteSpace=wrap;html=1;" vertex="1" parent="WIyWlLk6GJQsqaUBKTNV-1">
          <mxGeometry x="116.5" y="5216" width="95" height="50" as="geometry" />
        </mxCell>
        <mxCell id="s0_QOfzXOmme4zOiCUI5-130" value="资源地址" style="ellipse;whiteSpace=wrap;html=1;" vertex="1" parent="WIyWlLk6GJQsqaUBKTNV-1">
          <mxGeometry x="425" y="5126" width="95" height="50" as="geometry" />
        </mxCell>
        <mxCell id="s0_QOfzXOmme4zOiCUI5-131" value="资源名称" style="ellipse;whiteSpace=wrap;html=1;" vertex="1" parent="WIyWlLk6GJQsqaUBKTNV-1">
          <mxGeometry x="510" y="5166" width="95" height="50" as="geometry" />
        </mxCell>
        <mxCell id="s0_QOfzXOmme4zOiCUI5-135" style="edgeStyle=none;rounded=0;orthogonalLoop=1;jettySize=auto;html=1;entryX=1.042;entryY=0.63;entryDx=0;entryDy=0;entryPerimeter=0;" edge="1" parent="WIyWlLk6GJQsqaUBKTNV-1" source="s0_QOfzXOmme4zOiCUI5-144" target="s0_QOfzXOmme4zOiCUI5-146">
          <mxGeometry relative="1" as="geometry" />
        </mxCell>
        <mxCell id="s0_QOfzXOmme4zOiCUI5-138" style="edgeStyle=none;rounded=0;orthogonalLoop=1;jettySize=auto;html=1;entryX=0;entryY=0.5;entryDx=0;entryDy=0;" edge="1" parent="WIyWlLk6GJQsqaUBKTNV-1" source="s0_QOfzXOmme4zOiCUI5-144" target="s0_QOfzXOmme4zOiCUI5-151">
          <mxGeometry relative="1" as="geometry" />
        </mxCell>
        <mxCell id="s0_QOfzXOmme4zOiCUI5-140" style="edgeStyle=none;rounded=0;orthogonalLoop=1;jettySize=auto;html=1;entryX=0.5;entryY=1;entryDx=0;entryDy=0;" edge="1" parent="WIyWlLk6GJQsqaUBKTNV-1" source="s0_QOfzXOmme4zOiCUI5-144" target="s0_QOfzXOmme4zOiCUI5-152">
          <mxGeometry relative="1" as="geometry">
            <mxPoint x="373.5" y="5581" as="targetPoint" />
          </mxGeometry>
        </mxCell>
        <mxCell id="s0_QOfzXOmme4zOiCUI5-156" style="edgeStyle=none;rounded=0;orthogonalLoop=1;jettySize=auto;html=1;" edge="1" parent="WIyWlLk6GJQsqaUBKTNV-1" source="s0_QOfzXOmme4zOiCUI5-144" target="s0_QOfzXOmme4zOiCUI5-155">
          <mxGeometry relative="1" as="geometry" />
        </mxCell>
        <mxCell id="s0_QOfzXOmme4zOiCUI5-144" value="聊天信息" style="rounded=0;whiteSpace=wrap;html=1;" vertex="1" parent="WIyWlLk6GJQsqaUBKTNV-1">
          <mxGeometry x="360.75" y="5660" width="65" height="30" as="geometry" />
        </mxCell>
        <mxCell id="s0_QOfzXOmme4zOiCUI5-146" value="聊天室id" style="ellipse;whiteSpace=wrap;html=1;" vertex="1" parent="WIyWlLk6GJQsqaUBKTNV-1">
          <mxGeometry x="220" y="5636" width="95" height="54" as="geometry" />
        </mxCell>
        <mxCell id="s0_QOfzXOmme4zOiCUI5-151" value="已读标记" style="ellipse;whiteSpace=wrap;html=1;" vertex="1" parent="WIyWlLk6GJQsqaUBKTNV-1">
          <mxGeometry x="480" y="5650" width="95" height="50" as="geometry" />
        </mxCell>
        <mxCell id="s0_QOfzXOmme4zOiCUI5-152" value="id" style="ellipse;whiteSpace=wrap;html=1;" vertex="1" parent="WIyWlLk6GJQsqaUBKTNV-1">
          <mxGeometry x="345" y="5570" width="95" height="50" as="geometry" />
        </mxCell>
        <mxCell id="s0_QOfzXOmme4zOiCUI5-155" value="发送时间" style="ellipse;whiteSpace=wrap;html=1;" vertex="1" parent="WIyWlLk6GJQsqaUBKTNV-1">
          <mxGeometry x="345" y="5720" width="95" height="50" as="geometry" />
        </mxCell>
        <mxCell id="s0_QOfzXOmme4zOiCUI5-157" style="edgeStyle=none;rounded=0;orthogonalLoop=1;jettySize=auto;html=1;entryX=1.042;entryY=0.63;entryDx=0;entryDy=0;entryPerimeter=0;" edge="1" parent="WIyWlLk6GJQsqaUBKTNV-1" source="s0_QOfzXOmme4zOiCUI5-161" target="s0_QOfzXOmme4zOiCUI5-162">
          <mxGeometry relative="1" as="geometry" />
        </mxCell>
        <mxCell id="s0_QOfzXOmme4zOiCUI5-159" style="edgeStyle=none;rounded=0;orthogonalLoop=1;jettySize=auto;html=1;entryX=0.5;entryY=1;entryDx=0;entryDy=0;" edge="1" parent="WIyWlLk6GJQsqaUBKTNV-1" source="s0_QOfzXOmme4zOiCUI5-161" target="s0_QOfzXOmme4zOiCUI5-164">
          <mxGeometry relative="1" as="geometry">
            <mxPoint x="365" y="5871" as="targetPoint" />
          </mxGeometry>
        </mxCell>
        <mxCell id="s0_QOfzXOmme4zOiCUI5-170" value="" style="edgeStyle=none;rounded=0;orthogonalLoop=1;jettySize=auto;html=1;" edge="1" parent="WIyWlLk6GJQsqaUBKTNV-1" source="s0_QOfzXOmme4zOiCUI5-161" target="s0_QOfzXOmme4zOiCUI5-163">
          <mxGeometry relative="1" as="geometry" />
        </mxCell>
        <mxCell id="s0_QOfzXOmme4zOiCUI5-171" value="" style="edgeStyle=none;rounded=0;orthogonalLoop=1;jettySize=auto;html=1;" edge="1" parent="WIyWlLk6GJQsqaUBKTNV-1" source="s0_QOfzXOmme4zOiCUI5-161" target="s0_QOfzXOmme4zOiCUI5-163">
          <mxGeometry relative="1" as="geometry" />
        </mxCell>
        <mxCell id="s0_QOfzXOmme4zOiCUI5-172" style="edgeStyle=none;rounded=0;orthogonalLoop=1;jettySize=auto;html=1;" edge="1" parent="WIyWlLk6GJQsqaUBKTNV-1" source="s0_QOfzXOmme4zOiCUI5-161" target="s0_QOfzXOmme4zOiCUI5-168">
          <mxGeometry relative="1" as="geometry" />
        </mxCell>
        <mxCell id="s0_QOfzXOmme4zOiCUI5-173" style="edgeStyle=none;rounded=0;orthogonalLoop=1;jettySize=auto;html=1;" edge="1" parent="WIyWlLk6GJQsqaUBKTNV-1" source="s0_QOfzXOmme4zOiCUI5-161" target="s0_QOfzXOmme4zOiCUI5-167">
          <mxGeometry relative="1" as="geometry" />
        </mxCell>
        <mxCell id="s0_QOfzXOmme4zOiCUI5-174" style="edgeStyle=none;rounded=0;orthogonalLoop=1;jettySize=auto;html=1;" edge="1" parent="WIyWlLk6GJQsqaUBKTNV-1" source="s0_QOfzXOmme4zOiCUI5-161" target="s0_QOfzXOmme4zOiCUI5-166">
          <mxGeometry relative="1" as="geometry" />
        </mxCell>
        <mxCell id="s0_QOfzXOmme4zOiCUI5-161" value="建议/反馈消息" style="rounded=0;whiteSpace=wrap;html=1;" vertex="1" parent="WIyWlLk6GJQsqaUBKTNV-1">
          <mxGeometry x="352.25" y="5950" width="87.75" height="40" as="geometry" />
        </mxCell>
        <mxCell id="s0_QOfzXOmme4zOiCUI5-162" value="反馈内容" style="ellipse;whiteSpace=wrap;html=1;" vertex="1" parent="WIyWlLk6GJQsqaUBKTNV-1">
          <mxGeometry x="225" y="5860" width="95" height="54" as="geometry" />
        </mxCell>
        <mxCell id="s0_QOfzXOmme4zOiCUI5-163" value="回复时间" style="ellipse;whiteSpace=wrap;html=1;" vertex="1" parent="WIyWlLk6GJQsqaUBKTNV-1">
          <mxGeometry x="495.5" y="5920" width="95" height="50" as="geometry" />
        </mxCell>
        <mxCell id="s0_QOfzXOmme4zOiCUI5-164" value="id" style="ellipse;whiteSpace=wrap;html=1;" vertex="1" parent="WIyWlLk6GJQsqaUBKTNV-1">
          <mxGeometry x="385" y="5860" width="95" height="50" as="geometry" />
        </mxCell>
        <mxCell id="s0_QOfzXOmme4zOiCUI5-166" value="消息处理状态" style="ellipse;whiteSpace=wrap;html=1;" vertex="1" parent="WIyWlLk6GJQsqaUBKTNV-1">
          <mxGeometry x="210" y="5950" width="95" height="54" as="geometry" />
        </mxCell>
        <mxCell id="s0_QOfzXOmme4zOiCUI5-167" value="回复内容" style="ellipse;whiteSpace=wrap;html=1;" vertex="1" parent="WIyWlLk6GJQsqaUBKTNV-1">
          <mxGeometry x="259" y="6020" width="95" height="54" as="geometry" />
        </mxCell>
        <mxCell id="s0_QOfzXOmme4zOiCUI5-168" value="创建时间" style="ellipse;whiteSpace=wrap;html=1;" vertex="1" parent="WIyWlLk6GJQsqaUBKTNV-1">
          <mxGeometry x="440.5" y="6030" width="95" height="50" as="geometry" />
        </mxCell>
      </root>
    </mxGraphModel>
  </diagram>
</mxfile>
